<svg width="150" height="38" viewBox="0 0 150 38" fill="none" xmlns="http://www.w3.org/2000/svg">
<path d="M25.6 22.4C26.3 23.1 27.4 23.6 28.5 23.6C29.6 23.6 30.6 23.1 31.4 22.4C32.1 21.7 32.6 20.6 32.6 19.5C32.6 18.4 32.1 17.3 31.4 16.6C30.7 15.9 29.6 15.4 28.5 15.4C27.4 15.4 26.4 15.9 25.6 16.6C24.9 17.3 24.4 18.4 24.4 19.5C24.4 20.6 24.8 21.6 25.6 22.4Z" fill="#00AEEF"/>
<path fill-rule="evenodd" clip-rule="evenodd" d="M98.3 7.90002C97.3 7.90002 96.4 7.50002 95.8 6.90002C95.2001 6.30002 94.8 5.40002 94.8 4.40002C94.8 3.40002 95.2001 2.50002 95.8 1.90002C96.5 1.30002 97.3 0.900024 98.3 0.900024C99.3 0.900024 100.2 1.30002 100.8 1.90002C101.4 2.50002 101.8 3.40002 101.8 4.40002C101.8 5.40002 101.4 6.30002 100.8 6.90002C100.1 7.50002 99.3 7.90002 98.3 7.90002ZM42 3.30002H36.4V30.2H42V3.30002ZM56.3 14.7C55 14.7 53.9 15.1 53.1 15.8C52.2 16.5 51.7 17.5 51.5 18.8H61.1C60.9 17.6 60.4 16.6 59.5 15.9C58.6 15 57.6 14.7 56.3 14.7ZM66.4 20.5C66.4 20.6 66.4 21.1 66.3 22H51.6C51.9 23.2 52.5 24.2 53.5 24.9C54.5 25.6 55.7 25.9 57.2 25.9C58.2 25.9 59.1 25.7 59.9 25.4C60.2 25.3 60.5 25.1 60.8 24.9L63.9 28.3C62.2 29.7 59.9 30.4 57 30.4C54.8 30.4 52.9 30 51.2 29.1C49.5 28.2 48.2 27.1 47.3 25.5C46.4 24 45.9 22.3 45.9 20.3C45.9 18.4 46.4 16.7 47.3 15.1C48.2 13.6 49.4 12.4 51 11.5C52.6 10.6 54.3 10.2 56.3 10.2C58.2 10.2 59.9 10.6 61.5 11.4C63 12.2 64.3 13.4 65.1 14.9C66 16.7 66.4 18.5 66.4 20.5ZM119.3 24.3C118.3 25.3 117.1 25.8 115.7 25.8C114.2 25.8 113 25.3 112.1 24.3C111.2 23.3 110.7 22 110.7 20.4C110.7 18.8 111.2 17.5 112.1 16.5C113.1 15.5 114.3 15 115.7 15C117.2 15 118.4 15.5 119.3 16.5C120.2 17.5 120.7 18.8 120.7 20.4C120.7 22 120.2 23.3 119.3 24.3ZM110.2 29.1C111.8 30 113.6 30.4 115.7 30.4C117.7 30.4 119.5 30 121.2 29.1C122.8 28.2 124.1 27 125 25.5C125.9 24 126.4 22.2 126.4 20.3C126.4 18.3 125.9 16.6 125 15.1C124.1 13.5 122.8 12.4 121.2 11.5C119.6 10.6 117.8 10.2 115.7 10.2C113.7 10.2 111.8 10.6 110.2 11.5C108.6 12.4 107.3 13.6 106.4 15.1C105.5 16.6 105 18.4 105 20.3C105 22.3 105.5 24 106.4 25.5C107.3 27.1 108.6 28.2 110.2 29.1ZM147.7 12.6C146.3 11.1 144.3 10.4 141.9 10.4C140.6 10.4 139.4 10.6 138.3 11.1C137.2 11.5 136.2 12.2 135.5 13V10.7H130.1V30.1H135.7V20.5C135.7 18.8 136.2 17.5 137 16.6C137.8 15.7 139 15.3 140.4 15.3C141.6 15.3 142.6 15.6 143.3 16.4C144 17.2 144.3 18.4 144.3 19.9V30.1H149.9V19C149.9 16.2 149.2 14 147.7 12.6ZM101.1 10.7H95.5V30.2H101.1V10.7ZM83.3 23.3C82.3 24.2 81.1 24.6 79.6 24.6C78.1 24.6 76.8 24.1 75.9 23.3C75 22.4 74.5 21.2 74.5 19.8C74.5 18.3 74.9 17.2 75.9 16.3C76.9 15.4 78.1 15 79.6 15C81.1 15 82.3 15.4 83.3 16.3C84.2 17.2 84.7 18.4 84.7 19.8C84.7 21.3 84.3 22.4 83.3 23.3ZM90.2 26.9V10.8H84.8V13.3C83.4 11.4 81.2 10.5 78.4 10.5C76.6 10.5 75 10.9 73.5 11.7C72 12.5 70.9 13.6 70 15C69.1 16.4 68.7 18 68.7 19.9C68.7 21.7 69.1 23.4 70 24.8C70.8 26.2 72 27.3 73.5 28.1C75 28.9 76.6 29.3 78.4 29.3C81.1 29.3 83.1 28.5 84.6 26.9V27.7C84.6 29.5 84.1 30.8 83.2 31.7C82.2999 32.6 80.9 33 78.9 33C77.6 33 76.4 32.8 75.1 32.4C74.4 32.2 73.7999 31.9 73.2 31.6L69.7 34.8C70.7999 35.7 72.2 36.3 73.9 36.8C75.6 37.3 77.4 37.5 79.3 37.5C82.8 37.5 85.5 36.6 87.4 34.9C89.3 33.1 90.2 30.5 90.2 26.9ZM7.2 15.8C8 15.1 9.1 14.7 10.4 14.7C11.7 14.7 12.7 15 13.6 15.9C14.5 16.6 15 17.6 15.2 18.8H5.6C5.8 17.5 6.3 16.5 7.2 15.8ZM20.4 22C20.5 21.1 20.5 20.6 20.5 20.5C20.5 18.5 20.1 16.7 19.2 15C18.4 13.5 17.1 12.3 15.6 11.5C14 10.7 12.3 10.3 10.4 10.3C8.4 10.3 6.7 10.7 5.1 11.6C3.5 12.5 2.3 13.7 1.4 15.2C0.5 16.8 0 18.5 0 20.4C0 22.3 0.5 24.1 1.4 25.5C2.3 27.1 3.6 28.2 5.3 29.1C7 30 8.9 30.4 11.1 30.4C14 30.4 16.3 29.7 18 28.3L14.9 24.9C14.6 25.1 14.3 25.3 14 25.4C13.2 25.7 12.3 25.9 11.3 25.9C9.8 25.9 8.6 25.6 7.6 24.9C6.6 24.2 6 23.2 5.7 22H20.4Z" fill="#1D2638"/>
</svg>